<svg xmlns="http://www.w3.org/2000/svg" xmlns:xlink="http://www.w3.org/1999/xlink" id="Layer_1" x="0" y="0" version="1.1" viewBox="0 0 512 512" style="enable-background:new 0 0 512 512" xml:space="preserve"><style type="text/css">.st0{fill:url(#SVGID_1_)}</style><g><g><linearGradient id="SVGID_1_" x1="-1528.621" x2="-1708.917" y1="2412.179" y2="2231.883" gradientTransform="matrix(0 -1 1 0 -1900.6582 -1366.5105)" gradientUnits="userSpaceOnUse"><stop offset="0" style="stop-color:#ff932b"/><stop offset=".145" style="stop-color:#ff8a2d"/><stop offset=".378" style="stop-color:#ff7332"/><stop offset=".669" style="stop-color:#ff4d39"/><stop offset=".884" style="stop-color:#ff2c40"/></linearGradient><path d="M291.9,327.9l125.7,125.7l0,0c40.3-40.3,40.3-105.7,0-146L365.9,256l51.8-51.8c40.3-40.3,40.3-105.7,0-146 l0,0L291.9,184.1C252.2,224,252.2,288.2,291.9,327.9z" class="st0"/><linearGradient id="SVGID_00000147186235643184185360000014607362257786336143_" x1="-1565.592" x2="-1798.479" y1="2177.138" y2="2410.025" gradientTransform="matrix(0 -1 1 0 -1900.6582 -1366.5105)" gradientUnits="userSpaceOnUse"><stop offset=".05" style="stop-color:#ff932b"/><stop offset=".135" style="stop-color:#ff892d"/><stop offset=".724" style="stop-color:#ff463b"/><stop offset="1" style="stop-color:#ff2c40"/></linearGradient><path style="fill:url(#SVGID_00000147186235643184185360000014607362257786336143_)" d="M333.5,223.5l32.5,32.5l51.7,51.7 c40.3,40.3,40.3,105.7,0,146l0,0L291.9,327.9c-39.7-39.7-39.7-104,0-143.7l41.6-41.6C311.1,165,311.1,201.2,333.5,223.5z"/></g><g><linearGradient id="SVGID_00000120531019186096973490000013320306626987023246_" x1="3151.663" x2="2971.367" y1="2841.2" y2="2660.904" gradientTransform="matrix(0 1 -1 0 2841.6936 -2801.7888)" gradientUnits="userSpaceOnUse"><stop offset="0" style="stop-color:#85539c"/><stop offset=".128" style="stop-color:#8e5097"/><stop offset=".335" style="stop-color:#a5488b"/><stop offset=".593" style="stop-color:#cc3b77"/><stop offset=".884" style="stop-color:#ff2a5c"/></linearGradient><path style="fill:url(#SVGID_00000120531019186096973490000013320306626987023246_)" d="M220.1,184.1L94.4,58.3l0,0 c-40.3,40.3-40.3,105.7,0,146l51.7,51.7l-51.8,51.8c-40.3,40.3-40.3,105.7,0,146l0,0l125.9-125.9 C259.8,288,259.8,223.7,220.1,184.1z"/><linearGradient id="SVGID_00000108310652778380424830000000141885249230723742_" x1="3114.693" x2="2881.806" y1="2606.188" y2="2839.075" gradientTransform="matrix(0 1 -1 0 2841.6936 -2801.7888)" gradientUnits="userSpaceOnUse"><stop offset=".05" style="stop-color:#85539c"/><stop offset="1" style="stop-color:#ff2a5c"/></linearGradient><path style="fill:url(#SVGID_00000108310652778380424830000000141885249230723742_)" d="M178.5,288.3l-32.5-32.5l-51.7-51.6 c-40.3-40.3-40.3-105.7,0-146l0,0l125.7,125.7c39.7,39.7,39.7,104,0,143.7l-41.6,41.6C200.9,347,200.9,310.7,178.5,288.3z"/></g></g></svg>